<svg width="905" height="669" viewBox="0 0 905 669" fill="none" xmlns="http://www.w3.org/2000/svg">
<path d="M42.2851 508.821C47.8083 508.821 52.2398 509.88 55.5795 512C58.9833 514.119 60.6853 517.523 60.6853 522.211C60.6853 524.523 60.0109 526.418 58.6622 527.895C57.3135 529.308 55.4831 530.014 53.1711 530.014C50.9232 530.014 49.2534 529.501 48.1616 528.473C48.6754 527.06 48.9323 525.455 48.9323 523.656C48.9323 518.005 46.4275 515.179 41.418 515.179C38.9775 515.179 37.0508 515.789 35.6379 517.009C34.2892 518.165 33.6148 519.899 33.6148 522.211C33.6148 524.331 34.1607 526.257 35.2525 527.991C36.3443 529.725 37.693 531.267 39.2986 532.616C40.9685 533.964 43.2163 535.602 46.0422 537.529C49.3818 539.777 52.0471 541.8 54.0381 543.598C56.0932 545.332 57.8273 547.451 59.2402 549.956C60.6532 552.397 61.3596 555.222 61.3596 558.434C61.3596 564.15 59.4008 568.581 55.4831 571.728C51.5654 574.875 46.4917 576.448 40.262 576.448C34.6103 576.448 29.9219 575.325 26.1969 573.077C22.5362 570.765 20.7058 567.2 20.7058 562.383C20.7058 560.071 21.3801 558.209 22.7288 556.796C24.0775 555.319 25.8758 554.58 28.1237 554.58C30.3715 554.58 32.0413 555.094 33.1331 556.122C32.6836 557.406 32.4588 559.012 32.4588 560.938C32.4588 567.04 35.3489 570.09 41.129 570.09C43.9549 570.09 46.267 569.32 48.0652 567.778C49.8635 566.173 50.7626 564.021 50.7626 561.324C50.7626 559.204 50.2167 557.278 49.1249 555.544C48.0331 553.81 46.6523 552.268 44.9825 550.919C43.3769 549.571 41.1611 547.933 38.3353 546.006C34.9956 543.758 32.2982 541.767 30.2431 540.033C28.2521 538.235 26.5502 536.116 25.1372 533.675C23.7243 531.171 23.0178 528.313 23.0178 525.101C23.0178 519.963 24.8161 515.982 28.4127 513.156C32.0734 510.266 36.6976 508.821 42.2851 508.821ZM96.2024 510.747L112.676 574.329H101.308L97.4548 558.145H78.5729L74.8158 574.329H64.2188L81.8484 510.747H96.2024ZM80.307 551.016H95.8171L88.0139 517.972L80.307 551.016ZM153.13 510.747L152.456 517.876H137.62V574.329H126.349V517.876H111.224V510.747H153.13ZM168.387 510.747V574.329H157.115V510.747H168.387ZM197.702 508.821C203.226 508.821 207.657 509.88 210.997 512C214.401 514.119 216.103 517.523 216.103 522.211C216.103 524.523 215.428 526.418 214.079 527.895C212.731 529.308 210.9 530.014 208.588 530.014C206.34 530.014 204.671 529.501 203.579 528.473C204.093 527.06 204.35 525.455 204.35 523.656C204.35 518.005 201.845 515.179 196.835 515.179C194.395 515.179 192.468 515.789 191.055 517.009C189.706 518.165 189.032 519.899 189.032 522.211C189.032 524.331 189.578 526.257 190.67 527.991C191.762 529.725 193.11 531.267 194.716 532.616C196.386 533.964 198.634 535.602 201.459 537.529C204.799 539.777 207.464 541.8 209.455 543.598C211.51 545.332 213.245 547.451 214.657 549.956C216.07 552.397 216.777 555.222 216.777 558.434C216.777 564.15 214.818 568.581 210.9 571.728C206.983 574.875 201.909 576.448 195.679 576.448C190.028 576.448 185.339 575.325 181.614 573.077C177.953 570.765 176.123 567.2 176.123 562.383C176.123 560.071 176.797 558.209 178.146 556.796C179.495 555.319 181.293 554.58 183.541 554.58C185.789 554.58 187.459 555.094 188.55 556.122C188.101 557.406 187.876 559.012 187.876 560.938C187.876 567.04 190.766 570.09 196.546 570.09C199.372 570.09 201.684 569.32 203.482 567.778C205.281 566.173 206.18 564.021 206.18 561.324C206.18 559.204 205.634 557.278 204.542 555.544C203.45 553.81 202.07 552.268 200.4 550.919C198.794 549.571 196.578 547.933 193.753 546.006C190.413 543.758 187.715 541.767 185.66 540.033C183.669 538.235 181.967 536.116 180.554 533.675C179.142 531.171 178.435 528.313 178.435 525.101C178.435 519.963 180.233 515.982 183.83 513.156C187.491 510.266 192.115 508.821 197.702 508.821ZM269.538 510.747V574.329H258.267V545.717H236.688V574.329H225.416V510.747H236.688V538.588H258.267V510.747H269.538ZM324.154 510.747L340.628 574.329H329.26L325.406 558.145H306.525L302.767 574.329H292.17L309.8 510.747H324.154ZM308.259 551.016H323.769L315.965 517.972L308.259 551.016ZM369.136 515.564C363.998 515.564 360.53 518.133 358.732 523.271C356.934 528.345 356.035 534.703 356.035 542.346C356.035 550.181 356.934 556.571 358.732 561.516C360.53 566.462 364.159 568.934 369.618 568.934C372.636 568.934 375.398 568.517 377.903 567.682L377.517 545.139L388.018 543.791V572.499C385.706 573.719 382.752 574.682 379.155 575.389C375.559 576.095 372.283 576.448 369.329 576.448C360.209 576.448 353.69 573.494 349.773 567.586C345.855 561.613 343.896 553.36 343.896 542.827C343.896 532.423 345.951 524.17 350.062 518.069C354.236 511.903 360.883 508.821 370.003 508.821C375.719 508.821 380.343 509.944 383.876 512.192C387.408 514.44 389.174 518.005 389.174 522.886C389.174 525.198 388.5 527.092 387.151 528.569C385.802 529.982 383.972 530.689 381.66 530.689C379.541 530.689 377.871 530.175 376.65 529.147C377.164 527.735 377.421 526.129 377.421 524.331C377.421 521.569 376.715 519.418 375.302 517.876C373.889 516.335 371.834 515.564 369.136 515.564ZM439.933 528.184C439.933 532.551 438.81 536.276 436.562 539.359C434.378 542.442 431.36 544.529 427.506 545.621L444.269 574.329H431.938L414.79 543.887C414.404 543.18 414.212 542.538 414.212 541.96C419.029 541.96 422.593 540.9 424.905 538.781C427.217 536.597 428.373 533.194 428.373 528.569C428.373 524.716 427.378 521.858 425.387 519.996C423.46 518.069 420.474 517.105 416.427 517.105C414.437 517.105 412.381 517.266 410.262 517.587V574.329H398.991V511.133C406.569 510.619 412.606 510.362 417.102 510.362C432.323 510.362 439.933 516.303 439.933 528.184ZM472.423 508.821C488.864 508.821 497.085 519.771 497.085 541.671C497.085 564.856 488.864 576.448 472.423 576.448C463.431 576.448 457.041 573.462 453.252 567.489C449.527 561.516 447.664 553.296 447.664 542.827C447.664 532.551 449.591 524.331 453.445 518.165C457.362 511.935 463.688 508.821 472.423 508.821ZM472.423 569.705C477.561 569.705 480.933 567.168 482.538 562.094C484.144 556.956 484.947 550.374 484.947 542.346C484.947 534.703 484.112 528.345 482.442 523.271C480.772 518.133 477.432 515.564 472.423 515.564C467.349 515.564 463.977 518.133 462.308 523.271C460.638 528.345 459.803 534.703 459.803 542.346C459.803 550.374 460.606 556.956 462.211 562.094C463.817 567.168 467.221 569.705 472.423 569.705ZM534.257 510.747V574.329H522.986V510.747H534.257ZM580.431 574.329L554.902 530.785V574.329H545.847V510.747H554.421L579.95 554.291V510.747H589.005V574.329H580.431ZM600.6 511.133C608.179 510.619 614.858 510.362 620.638 510.362C637.465 510.362 645.878 520.574 645.878 540.997C645.878 563.861 636.694 575.292 618.326 575.292C612.931 575.292 607.023 574.811 600.6 573.847V511.133ZM618.326 568.549C622.822 568.549 626.226 567.425 628.538 565.177C630.85 562.929 632.359 559.975 633.066 556.314C633.772 552.589 634.125 547.933 634.125 542.346C634.125 534.896 633.13 528.826 631.139 524.138C629.148 519.45 625.423 517.105 619.964 517.105C617.588 517.105 614.89 517.266 611.872 517.587V567.971C614.184 568.356 616.335 568.549 618.326 568.549ZM696.595 547.933C696.595 554.42 696.017 559.718 694.861 563.828C693.769 567.875 691.714 570.989 688.695 573.173C685.677 575.357 681.309 576.448 675.593 576.448C670.07 576.448 665.767 575.549 662.684 573.751C659.666 571.889 657.547 569.127 656.326 565.466C655.106 561.805 654.496 557.021 654.496 551.112V510.747H665.767V550.052C665.767 554.291 665.96 557.759 666.345 560.457C666.795 563.09 667.79 565.306 669.332 567.104C670.873 568.838 673.217 569.705 676.364 569.705C679.511 569.705 681.855 568.774 683.397 566.911C684.938 564.984 685.901 562.608 686.287 559.782C686.672 556.956 686.865 553.36 686.865 548.993V510.747H696.595V547.933ZM725.387 508.821C730.91 508.821 735.342 509.88 738.682 512C742.085 514.119 743.787 517.523 743.787 522.211C743.787 524.523 743.113 526.418 741.764 527.895C740.416 529.308 738.585 530.014 736.273 530.014C734.025 530.014 732.355 529.501 731.264 528.473C731.777 527.06 732.034 525.455 732.034 523.656C732.034 518.005 729.53 515.179 724.52 515.179C722.08 515.179 720.153 515.789 718.74 517.009C717.391 518.165 716.717 519.899 716.717 522.211C716.717 524.331 717.263 526.257 718.355 527.991C719.446 529.725 720.795 531.267 722.401 532.616C724.071 533.964 726.318 535.602 729.144 537.529C732.484 539.777 735.149 541.8 737.14 543.598C739.195 545.332 740.929 547.451 742.342 549.956C743.755 552.397 744.462 555.222 744.462 558.434C744.462 564.15 742.503 568.581 738.585 571.728C734.668 574.875 729.594 576.448 723.364 576.448C717.712 576.448 713.024 575.325 709.299 573.077C705.638 570.765 703.808 567.2 703.808 562.383C703.808 560.071 704.482 558.209 705.831 556.796C707.18 555.319 708.978 554.58 711.226 554.58C713.474 554.58 715.143 555.094 716.235 556.122C715.786 557.406 715.561 559.012 715.561 560.938C715.561 567.04 718.451 570.09 724.231 570.09C727.057 570.09 729.369 569.32 731.167 567.778C732.966 566.173 733.865 564.021 733.865 561.324C733.865 559.204 733.319 557.278 732.227 555.544C731.135 553.81 729.754 552.268 728.085 550.919C726.479 549.571 724.263 547.933 721.437 546.006C718.098 543.758 715.4 541.767 713.345 540.033C711.354 538.235 709.652 536.116 708.239 533.675C706.826 531.171 706.12 528.313 706.12 525.101C706.12 519.963 707.918 515.982 711.515 513.156C715.176 510.266 719.8 508.821 725.387 508.821ZM787.782 510.747L787.108 517.876H772.272V574.329H761.001V517.876H745.876V510.747H787.782ZM832.71 528.184C832.71 532.551 831.586 536.276 829.338 539.359C827.155 542.442 824.136 544.529 820.283 545.621L837.045 574.329H824.714L807.566 543.887C807.181 543.18 806.988 542.538 806.988 541.96C811.805 541.96 815.37 540.9 817.682 538.781C819.994 536.597 821.15 533.194 821.15 528.569C821.15 524.716 820.154 521.858 818.163 519.996C816.237 518.069 813.25 517.105 809.204 517.105C807.213 517.105 805.158 517.266 803.039 517.587V574.329H791.767V511.133C799.346 510.619 805.383 510.362 809.878 510.362C825.1 510.362 832.71 516.303 832.71 528.184ZM867.03 544.947V574.329H855.759V546.103L837.262 510.747H849.593L862.117 536.854L873.966 510.747H885.526L867.03 544.947Z" fill="url(#paint0_linear)"/>
<path d="M323.946 605.98V648.368H316.431V612.981L306.155 648.368H301.146L290.87 612.852V648.368H284.833V605.98H296.137L304.678 636.487L313.156 605.98H323.946ZM349.09 605.98L360.073 648.368H352.494L349.925 637.579H337.337L334.833 648.368H327.768L339.521 605.98H349.09ZM338.493 632.826H348.833L343.631 610.797L338.493 632.826ZM363.922 606.237C368.974 605.895 373.427 605.723 377.28 605.723C388.498 605.723 394.107 612.531 394.107 626.147C394.107 641.389 387.984 649.01 375.739 649.01C372.142 649.01 368.203 648.689 363.922 648.047V606.237ZM375.739 644.515C378.736 644.515 381.005 643.765 382.546 642.267C384.088 640.768 385.094 638.799 385.565 636.358C386.036 633.875 386.271 630.771 386.271 627.046C386.271 622.079 385.608 618.033 384.281 614.907C382.953 611.782 380.47 610.219 376.831 610.219C375.246 610.219 373.448 610.326 371.436 610.54V644.129C372.977 644.386 374.411 644.515 375.739 644.515ZM421.688 605.98V610.733H407.687V624.22H419.761V628.972H407.687V643.616H422.587L422.138 648.368H400.173V605.98H421.688ZM447.075 605.98V648.368H439.56V605.98H447.075ZM477.858 648.368L460.838 619.339V648.368H454.801V605.98H460.517L477.536 635.01V605.98H483.573V648.368H477.858ZM510.044 605.98V648.368H502.53V605.98H510.044ZM540.827 648.368L523.808 619.339V648.368H517.771V605.98H523.487L540.506 635.01V605.98H546.543V648.368H540.827ZM554.273 606.237C559.325 605.895 563.778 605.723 567.632 605.723C578.85 605.723 584.458 612.531 584.458 626.147C584.458 641.389 578.336 649.01 566.09 649.01C562.494 649.01 558.555 648.689 554.273 648.047V606.237ZM566.09 644.515C569.087 644.515 571.357 643.765 572.898 642.267C574.439 640.768 575.446 638.799 575.917 636.358C576.388 633.875 576.623 630.771 576.623 627.046C576.623 622.079 575.959 618.033 574.632 614.907C573.305 611.782 570.822 610.219 567.182 610.219C565.598 610.219 563.8 610.326 561.787 610.54V644.129C563.329 644.386 564.763 644.515 566.09 644.515ZM598.039 605.98V648.368H590.525V605.98H598.039ZM623.234 605.98L634.217 648.368H626.638L624.069 637.579H611.481L608.977 648.368H601.912L613.665 605.98H623.234ZM612.637 632.826H622.977L617.775 610.797L612.637 632.826Z" fill="url(#paint1_linear)"/>
<path fill-rule="evenodd" clip-rule="evenodd" d="M740.851 328.079C718.284 328.022 696.617 336.923 680.607 352.828C664.597 368.733 655.554 390.341 655.462 412.908C655.462 459.715 693.786 497.737 740.851 497.737C763.407 497.783 785.058 488.875 801.052 472.97C817.046 457.066 826.074 435.464 826.153 412.908C826.153 366.102 787.873 328.079 740.851 328.079Z" fill="url(#paint2_linear)"/>
<path fill-rule="evenodd" clip-rule="evenodd" d="M489.324 328.079C466.757 328.022 445.09 336.923 429.08 352.828C413.07 368.733 404.027 390.341 403.936 412.908C403.936 459.715 442.259 497.737 489.324 497.737C511.88 497.783 533.532 488.875 549.525 472.97C565.519 457.066 574.547 435.464 574.627 412.908C574.627 366.102 536.346 328.079 489.324 328.079Z" fill="url(#paint3_linear)"/>
<path fill-rule="evenodd" clip-rule="evenodd" d="M826.325 245.587C827.839 247.314 829.586 249.309 831.524 251.774C850.342 265.424 862.571 285.361 862.657 313.996C862.657 336.172 861.494 356.798 855.208 374.323C834.711 329.325 789.368 297.848 736.533 297.848C703.603 297.827 671.894 310.315 647.823 332.787C623.752 355.26 609.117 386.037 606.879 418.891C606.534 415.231 605.802 410.58 604.64 405.456C599.518 375.246 583.855 347.83 560.434 328.074C537.013 308.319 507.348 297.503 476.708 297.547C450.934 297.517 425.735 305.162 404.323 319.507C404.303 318.619 404.217 317.778 404.13 316.94C404.033 315.991 403.936 315.045 403.936 314.039C403.936 299.142 406.465 286.529 411.154 275.946L303.896 230.951C301.717 255.033 291.541 278.211 273.301 296.203C231.026 337.902 141.234 315.363 97.7208 271.248L112.707 259.971L111.641 248.248C103.986 244.967 97.4247 241.139 90.8632 236.218L63.5233 248.794C60.7893 250.435 58.0553 249.341 56.4149 246.607L32.9026 206.144C31.2622 203.41 32.3558 200.129 34.543 198.489L60.2425 180.991C59.6957 177.164 59.1489 173.336 59.1489 168.962C59.1489 164.587 59.6957 160.76 60.2425 156.932L35.6366 139.435C33.4494 137.794 32.3558 134.514 33.9962 131.78L57.5085 91.3166C58.6021 89.1294 61.8829 88.0358 64.6169 89.1294L91.9568 101.706C97.9715 96.7846 105.08 92.957 112.735 89.6762L115.469 59.6023C115.469 56.8684 118.203 54.6812 120.937 54.6812H167.962C170.696 54.6812 172.883 56.8684 173.43 59.6023L176.164 89.6762C183.819 92.957 190.38 96.7846 196.942 101.706L224.282 89.1294C227.016 87.489 229.75 88.5826 231.39 91.3166L255.449 131.78C257.09 134.514 255.996 137.794 253.809 139.435L229.203 156.932C229.75 160.76 230.297 164.587 230.297 168.962C230.297 169.837 230.275 170.69 230.235 171.526L271.017 140.836C275.824 145.71 280.113 150.894 283.882 156.316L463.322 231.607L491.822 79.0587C491.776 58.1665 500.02 38.1092 514.744 23.2878C529.469 8.4663 549.471 0.0911826 570.364 0H755.135C798.454 0 820.027 35.4386 820.027 79.0587V233.947C820.027 238.397 822.381 241.084 826.325 245.587ZM560.804 215.689H651.877V56.0645C651.877 43.6632 647.312 38.8404 641.715 38.8404H570.88C565.326 38.8404 560.804 43.6632 560.804 56.0645V215.689ZM690.889 172.5H779.551V38.1084H690.889V172.5ZM143.903 223.642C153.123 223.642 161.829 221.329 169.47 217.255L183.077 207.015C192.661 197.153 198.582 183.715 198.582 168.962C198.582 138.888 173.976 114.282 143.903 114.282C113.829 114.282 89.2228 138.888 89.2228 168.962C89.2228 199.036 113.829 223.642 143.903 223.642Z" fill="url(#paint4_linear)"/>
<defs>
<linearGradient id="paint0_linear" x1="0" y1="529.849" x2="904.489" y2="529.849" gradientUnits="userSpaceOnUse">
<stop stop-color="#EB3349"/>
<stop offset="1" stop-color="#F45C43"/>
</linearGradient>
<linearGradient id="paint1_linear" x1="267.6" y1="626.184" x2="647.592" y2="626.184" gradientUnits="userSpaceOnUse">
<stop stop-color="#EB3349"/>
<stop offset="1" stop-color="#F45C43"/>
</linearGradient>
<linearGradient id="paint2_linear" x1="655.462" y1="412.908" x2="826.153" y2="412.908" gradientUnits="userSpaceOnUse">
<stop stop-color="#5C258D"/>
<stop offset="1" stop-color="#4389A2"/>
</linearGradient>
<linearGradient id="paint3_linear" x1="403.936" y1="412.908" x2="574.627" y2="412.908" gradientUnits="userSpaceOnUse">
<stop stop-color="#5C258D"/>
<stop offset="1" stop-color="#4389A2"/>
</linearGradient>
<linearGradient id="paint4_linear" x1="124.713" y1="154.554" x2="256.464" y2="156.202" gradientUnits="userSpaceOnUse">
<stop stop-color="#5C258D"/>
<stop offset="1" stop-color="#4389A2"/>
</linearGradient>
</defs>
</svg>
